<svg width="38" height="31" viewBox="0 0 38 31" fill="none" xmlns="http://www.w3.org/2000/svg">
<path d="M6 0.791664H32C33.5913 0.791664 35.1174 1.41064 36.2426 2.51241C37.3679 3.61419 38 5.10852 38 6.66666V24.2917C38 25.8498 37.3679 27.3441 36.2426 28.4459C35.1174 29.5477 33.5913 30.1667 32 30.1667H6C4.4087 30.1667 2.88258 29.5477 1.75736 28.4459C0.632141 27.3441 0 25.8498 0 24.2917V6.66666C0 5.10852 0.632141 3.61419 1.75736 2.51241C2.88258 1.41064 4.4087 0.791664 6 0.791664ZM6 2.75C4.93913 2.75 3.92172 3.16264 3.17157 3.89716C2.42143 4.63168 2 5.6279 2 6.66666V8.625H36V6.66666C36 5.6279 35.5786 4.63168 34.8284 3.89716C34.0783 3.16264 33.0609 2.75 32 2.75H6ZM2 24.2917C2 25.3304 2.42143 26.3266 3.17157 27.0612C3.92172 27.7957 4.93913 28.2083 6 28.2083H32C33.0609 28.2083 34.0783 27.7957 34.8284 27.0612C35.5786 26.3266 36 25.3304 36 24.2917V14.5H2V24.2917ZM6 22.3333H14V24.2917H6V22.3333ZM18 22.3333H24V24.2917H18V22.3333ZM2 10.5833V12.5417H36V10.5833H2Z" fill="white"/>
</svg>
