<svg width="35" height="35" viewBox="0 0 35 35" fill="none" xmlns="http://www.w3.org/2000/svg">
<path d="M31.8679 23.9429H3.13938C1.97509 23.9429 1.00366 23 1.00366 21.8071C1.00366 20.6429 1.94652 19.6714 3.13938 19.6714H31.8608C33.0251 19.6714 33.9965 20.6143 33.9965 21.8071C34.0037 23 33.0322 23.9429 31.8679 23.9429Z" fill="black" fill-opacity="0.5"/>
<path d="M29.7536 35H5.25363C3.38935 35 1.86792 33.4714 1.86792 31.6143V30.0286H33.1179V31.6143C33.1394 33.4714 31.6179 35 29.7536 35Z" fill="white" fill-opacity="0.8"/>
<path d="M26.5036 9.72143V5.25H31.1179C31.4822 5.25 31.7536 4.97143 31.7536 4.61429V0.635714C31.7536 0.271429 31.4751 0 31.1179 0H25.8108C25.4251 0 25.1179 0.335714 25.1179 0.721429V9.19286C22.8679 8.47143 20.2822 8.05714 17.5036 8.05714C8.86792 8.05714 1.86792 12.0857 1.86792 17.0286H33.1179C33.1393 14.0286 30.5036 11.3357 26.5036 9.72143ZM7.5322 14.2786C7.5322 14.6429 7.25363 14.9143 6.89649 14.9429C6.86792 14.9429 6.86792 14.9429 6.83935 14.9429C6.47506 14.9429 6.17506 14.6643 6.14649 14.3071C6.11792 13.9714 6.23221 13.6714 6.45363 13.4214C6.70363 13.1429 7.14649 13.1143 7.45363 13.3643C7.69649 13.5857 7.72506 14 7.5322 14.2786ZM14.6393 11.3071L13.7536 11.4429C13.7251 11.4429 13.6965 11.4429 13.6393 11.4429C13.3036 11.4429 13.0036 11.1929 12.9465 10.8286C12.8893 10.4429 13.1679 10.1071 13.5322 10.05L14.4179 9.91429C14.8036 9.85714 15.1393 10.1357 15.1965 10.5C15.2822 10.8857 15.0322 11.25 14.6393 11.3071ZM17.2251 14.8357C17.1965 14.8357 17.1965 14.8357 17.1679 14.8357L16.2822 14.7786C15.8965 14.75 15.6179 14.4143 15.6465 14.0286C15.6751 13.6429 16.0108 13.3643 16.3965 13.3929L17.2822 13.45C17.6679 13.4786 17.9465 13.8143 17.9179 14.2C17.8893 14.5571 17.5893 14.8357 17.2251 14.8357ZM24.8393 12.0571C24.4822 12.5857 24.0036 12.3929 23.8965 12.3357L22.6179 11.6143C22.2822 11.4214 22.1751 11 22.3393 10.6714C22.5322 10.3357 22.9536 10.2286 23.2822 10.3929L24.5608 11.1143C24.8893 11.3071 25.0036 11.7214 24.8393 12.0571ZM28.4465 14.5857C27.9965 14.9857 27.6108 14.75 27.4751 14.6143L26.9465 14.1714C26.6679 13.9214 26.6393 13.4786 26.9179 13.1714C27.1679 12.8929 27.6108 12.8643 27.9179 13.1429L28.4179 13.6143C28.6679 13.8643 28.6965 14.3071 28.4465 14.5857Z" fill="white" fill-opacity="0.8"/>
<path d="M25.8894 28.6714C24.8822 28.6714 23.9394 28.2786 23.2322 27.5714C22.3822 26.7214 21.0108 26.7214 20.1608 27.5714C19.4537 28.2786 18.5037 28.6714 17.5037 28.6714C16.4965 28.6714 15.5537 28.2786 14.8465 27.5714C13.9965 26.7214 12.6251 26.7214 11.7751 27.5714C11.068 28.2786 10.118 28.6714 9.11796 28.6714C8.11081 28.6714 7.16795 28.2786 6.46081 27.5714C5.61081 26.7214 4.23938 26.7214 3.38938 27.5714C3.08224 27.8786 2.5751 27.8786 2.26795 27.5714C1.96081 27.2643 1.96081 26.7571 2.26795 26.45C3.73224 24.9857 6.11795 24.9857 7.58224 26.45C7.98938 26.8571 8.53938 27.0857 9.11796 27.0857C9.69653 27.0857 10.2465 26.8571 10.6537 26.45C12.118 24.9857 14.5037 24.9857 15.968 26.45C16.3751 26.8571 16.9251 27.0857 17.5037 27.0857C18.0822 27.0857 18.6322 26.8571 19.0394 26.45C20.5037 24.9857 22.8894 24.9857 24.3537 26.45C24.7608 26.8571 25.3108 27.0857 25.8894 27.0857C26.468 27.0857 27.018 26.8571 27.4251 26.45C28.8894 24.9857 31.2751 24.9857 32.7394 26.45C33.0465 26.7571 33.0465 27.2643 32.7394 27.5714C32.4322 27.8786 31.9251 27.8786 31.618 27.5714C30.768 26.7214 29.3965 26.7214 28.5465 27.5714C27.8394 28.2786 26.8965 28.6714 25.8894 28.6714Z" fill="white" fill-opacity="0.8"/>
</svg>
