<svg width="29" height="31" viewBox="0 0 29 31" fill="none" xmlns="http://www.w3.org/2000/svg">
<path d="M15.2744 0.506938C15.1728 0.405081 15.0521 0.324269 14.9192 0.269129C14.7863 0.21399 14.6439 0.185608 14.5 0.185608C14.3561 0.185608 14.2137 0.21399 14.0808 0.269129C13.9479 0.324269 13.8272 0.405081 13.7256 0.506938L0.600627 13.6319C0.499123 13.7337 0.418671 13.8545 0.36387 13.9873C0.309069 14.1202 0.280995 14.2626 0.281252 14.4063V29.7188C0.281252 30.0089 0.396486 30.2871 0.601604 30.4922C0.806722 30.6973 1.08492 30.8126 1.375 30.8126H11.2188C11.5088 30.8126 11.787 30.6973 11.9922 30.4922C12.1973 30.2871 12.3125 30.0089 12.3125 29.7188V20.9688H16.6875V29.7188C16.6875 30.0089 16.8027 30.2871 17.0079 30.4922C17.213 30.6973 17.4912 30.8126 17.7813 30.8126H27.625C27.9151 30.8126 28.1933 30.6973 28.3984 30.4922C28.6035 30.2871 28.7188 30.0089 28.7188 29.7188V14.4063C28.719 14.2626 28.6909 14.1202 28.6361 13.9873C28.5813 13.8545 28.5009 13.7337 28.3994 13.6319L25.4375 10.6723V3.46881C25.4375 3.17873 25.3223 2.90053 25.1172 2.69542C24.912 2.4903 24.6338 2.37506 24.3438 2.37506H22.1563C21.8662 2.37506 21.588 2.4903 21.3829 2.69542C21.1777 2.90053 21.0625 3.17873 21.0625 3.46881V6.29725L15.2744 0.506938ZM2.46875 28.6251V14.8591L14.5 2.82788L26.5313 14.8591V28.6251H18.875V19.8751C18.875 19.585 18.7598 19.3068 18.5547 19.1017C18.3495 18.8965 18.0713 18.7813 17.7813 18.7813H11.2188C10.9287 18.7813 10.6505 18.8965 10.4454 19.1017C10.2402 19.3068 10.125 19.585 10.125 19.8751V28.6251H2.46875Z" fill="white" fill-opacity="0.8"/>
</svg>
