<svg width="36" height="36" viewBox="0 0 36 36" fill="#ffffff" xmlns="http://www.w3.org/2000/svg">
<path d="M22.3437 0.94191C22.4121 0.947609 22.6339 0.96471 22.8365 0.981808C26.07 1.25252 29.2269 2.73719 31.5542 5.0853C32.4221 5.96014 33.1094 6.83499 33.7227 7.84091C34.952 9.85847 35.6639 12.0527 35.9021 14.5604C35.9486 15.0534 35.9486 16.6121 35.9021 17.1251C35.7132 19.2281 35.1546 21.1858 34.2484 22.9384C32.8794 25.5828 30.8095 27.7115 28.2549 29.105C25.7388 30.4757 22.79 31.0342 19.9069 30.6866C17.5303 30.4016 15.1757 29.4612 13.2618 28.0335C13.1085 27.9195 12.9771 27.8255 12.9661 27.8255C12.9579 27.8255 11.2111 29.5011 9.08367 31.55C6.959 33.596 5.1492 35.3286 5.06706 35.397C4.86993 35.5623 4.42364 35.7903 4.14985 35.8672C3.83224 35.9556 3.17786 35.9556 2.863 35.8672C1.22021 35.397 0.442631 33.4821 1.27224 31.9489C1.4858 31.5557 1.06415 31.9717 6.50998 26.7312L9.46699 23.8873L9.237 23.4826C8.77975 22.6847 8.30609 21.6104 8.00765 20.6957C6.90424 17.3131 7.00007 13.6086 8.27597 10.2774C9.3383 7.49611 11.2165 5.091 13.6123 3.43251C15.6 2.05898 17.7658 1.25537 20.1807 0.996056C20.5749 0.953308 22.048 0.916264 22.3437 0.94191ZM20.6626 6.2964C18.8664 6.49588 17.2483 7.19119 15.8136 8.3795C15.4275 8.69866 14.702 9.45382 14.3926 9.85847C12.7662 11.9786 12.0817 14.6117 12.4623 17.2904C12.9634 20.8211 15.4385 23.8673 18.7159 24.9844C19.7809 25.3492 20.6516 25.4802 21.8317 25.4517C22.5654 25.4347 22.9433 25.3891 23.5621 25.2466C26.1631 24.6396 28.3727 22.9241 29.676 20.4991C30.6972 18.6012 31.0614 16.3557 30.6945 14.2042C30.2564 11.6138 28.7861 9.29424 26.656 7.83237C25.4102 6.97747 24.0439 6.46738 22.5545 6.29925C22.0918 6.24511 21.1307 6.24511 20.6626 6.2964Z" fill="white" fill-opacity="0.8"/>
</svg>
